<?xml version="1.0" encoding="UTF-8"?>
<svg xmlns="http://www.w3.org/2000/svg" width="430" height="932" viewBox="0 0 430 932">
  <style>
  .bg { fill: #050606; }
  .window { fill: #0b0d0e; stroke: #303538; stroke-width: 1.2; }
  .topbar { fill: #111315; stroke: #252a2e; stroke-width: 1; }
  .panel { fill: #141619; stroke: #30353a; stroke-width: 1.1; }
  .panel2 { fill: #101214; stroke: #2a2f34; stroke-width: 1; }
  .mutedPanel { fill: #0f1213; stroke: #242a2d; stroke-width: 1; }
  .active { stroke: #33f24f; stroke-width: 1.8; }
  .greenFill { fill: #261018; }
  .title { font: 700 32px "PingFang SC", "Microsoft YaHei", Arial, sans-serif; fill: #f3f6f6; }
  .h1 { font: 700 25px "PingFang SC", "Microsoft YaHei", Arial, sans-serif; fill: #f5f7f7; }
  .h2 { font: 700 18px "PingFang SC", "Microsoft YaHei", Arial, sans-serif; fill: #f1f5f3; }
  .h3 { font: 700 15px "PingFang SC", "Microsoft YaHei", Arial, sans-serif; fill: #dce2e0; }
  .label { font: 650 12px "PingFang SC", "Microsoft YaHei", Arial, sans-serif; fill: #8e9898; }
  .tiny { font: 500 11px "PingFang SC", "Microsoft YaHei", Arial, sans-serif; fill: #788282; }
  .body { font: 500 14px "PingFang SC", "Microsoft YaHei", Arial, sans-serif; fill: #d6ddda; }
  .body2 { font: 500 13px "PingFang SC", "Microsoft YaHei", Arial, sans-serif; fill: #aeb8b5; }
  .green { fill: #ff4357; }
  .green2 { fill: #ff7a88; }
  .amber { fill: #f6c45b; }
  .red { fill: #ff6666; }
  .cyan { fill: #60d2ff; }
  .violet { fill: #a88cff; }
  .lineGreen { fill: none; stroke: #ff5263; stroke-width: 3; stroke-linecap: round; stroke-linejoin: round; }
  .lineCyan { fill: none; stroke: #60d2ff; stroke-width: 2.4; stroke-linecap: round; stroke-linejoin: round; }
  .dash { fill: none; stroke: #8d865c; stroke-width: 1.4; stroke-dasharray: 6 7; opacity: .9; }
  .divider { stroke: #252b2e; stroke-width: 1; }
  .mono { font: 650 14px "SFMono-Regular", "Cascadia Mono", Menlo, monospace; fill: #f2f5f2; }
  .monoGreen { font: 800 24px "SFMono-Regular", "Cascadia Mono", Menlo, monospace; fill: #ff4357; }
  .monoSmall { font: 650 12px "SFMono-Regular", "Cascadia Mono", Menlo, monospace; fill: #9ba7a3; }
  .chipText { font: 700 12px "PingFang SC", "Microsoft YaHei", Arial, sans-serif; fill: #071007; }
  .nodeTitle { font: 800 18px "PingFang SC", "Microsoft YaHei", Arial, sans-serif; fill: #f2f6f5; }
  .nodeItem { font: 550 13px "PingFang SC", "Microsoft YaHei", Arial, sans-serif; fill: #aeb8b5; }
  .nodeMeta { font: 700 11px "PingFang SC", "Microsoft YaHei", Arial, sans-serif; fill: #ff4357; }

  .active { stroke: #ff4357; stroke-width: 1.8; }
  .green { fill: #ff4357; }
  .green2 { fill: #ff7a88; }
  .lineGreen { fill: none; stroke: #ff5263; stroke-width: 3; stroke-linecap: round; stroke-linejoin: round; }
  .monoGreen { font: 800 24px "SFMono-Regular", "Cascadia Mono", Menlo, monospace; fill: #ff4357; }
  .nodeMeta { font: 700 11px "PingFang SC", "Microsoft YaHei", Arial, sans-serif; fill: #ff4357; }
</style>
  <rect width="430" height="932" fill="#050606"/>
  <rect x="10" y="10" width="410" height="912" rx="34" fill="#0b0d0e" stroke="#303538"/>
  <rect x="156" y="24" width="118" height="24" rx="12" fill="#050606"/>
  <text x="32" y="70" class="label" text-anchor="start">AI HOLDINGS · FUTU</text>
  <text x="32" y="104" class="h1" text-anchor="start">AI 持仓系统 3.0</text>
  <rect x="286" y="74" width="112" height="36" rx="18" fill="#2c1118" stroke="#ff4357"/>
  <text x="342" y="97" class="green2" text-anchor="middle">ALL_ASSETS</text>

  <rect x="30" y="126" width="370" height="58" rx="10" fill="#141619" stroke="#30353a"/>
  <text x="48" y="153" class="label" text-anchor="start">当前视图</text>
  <text x="48" y="173" class="body2" text-anchor="start">全部资产 / 美股账户 / 期权策略账户</text>
  <text x="384" y="157" class="green" text-anchor="end">fresh 42s</text>

  <g>
    <rect x="30" y="198" width="184" height="82" rx="8" fill="#141619" stroke="#30353a"/>
    <text x="44" y="222" class="label" text-anchor="start">总资产</text>
    <text x="44" y="252" class="monoGreen" text-anchor="start">¥1,248,620</text>
    <text x="44" y="270" class="tiny" text-anchor="start">+1.04% today</text>
  </g>
  <g>
    <rect x="216" y="198" width="184" height="82" rx="8" fill="#141619" stroke="#30353a"/>
    <text x="230" y="222" class="label" text-anchor="start">今日盈亏</text>
    <text x="230" y="252" class="monoGreen" text-anchor="start">+¥12,840</text>
    <text x="230" y="270" class="tiny" text-anchor="start">权益 +9.2k</text>
  </g>
  <g>
    <rect x="30" y="290" width="184" height="82" rx="8" fill="#141619" stroke="#30353a"/>
    <text x="44" y="314" class="label" text-anchor="start">现金/保证金</text>
    <text x="44" y="344" class="monoGreen" text-anchor="start">31.8%</text>
    <text x="44" y="362" class="tiny" text-anchor="start">sell put cash</text>
  </g>
  <g>
    <rect x="216" y="290" width="184" height="82" rx="8" fill="#141619" stroke="#30353a"/>
    <text x="230" y="314" class="label" text-anchor="start">待处理</text>
    <text x="230" y="344" class="monoGreen" text-anchor="start">5</text>
    <text x="230" y="362" class="tiny" text-anchor="start">确认 2 · 纪律 3</text>
  </g>

  <rect x="30" y="390" width="370" height="124" rx="10" fill="#141619" stroke="#30353a"/>
  <text x="48" y="420" class="h3" text-anchor="start">今日持仓结论</text>
  <text x="48" y="448" class="body" text-anchor="start">组合风险可控，NVDA 与 QQQ 暴露偏高。</text>
  <text x="48" y="474" class="body2" text-anchor="start">Sell Put 现金占用 21.6%，TSLA 250P</text>
  <text x="48" y="498" class="body2" text-anchor="start">接近纪律阈值，需要进入确认中心。</text>
  <rect x="282" y="407" width="94" height="34" rx="6" fill="#2c1118" stroke="#ff4357"/>
  <text x="329" y="429" class="green2" text-anchor="middle">解释</text>

  <rect x="30" y="528" width="370" height="122" rx="10" fill="#141619" stroke="#30353a"/>
  <text x="48" y="558" class="h3" text-anchor="start">重点持仓</text>
  <g>
    <rect x="30" y="574" width="370" height="48" rx="7" fill="#101315" stroke="#252b2e"/>
    <text x="46" y="602" class="mono" text-anchor="start">NVDA</text>
    <text x="128" y="602" class="body2" text-anchor="start">NVIDIA · US</text>
    <text x="300" y="602" class="monoSmall" text-anchor="end">18.4%</text>
    <text x="384" y="602" class="green" text-anchor="end">+¥8,420</text>
  </g>
  <text x="48" y="636" class="tiny" text-anchor="start">AAPL 11.6%  +¥1,230   ·   0700.HK 纪律关注</text>

  <rect x="30" y="664" width="370" height="78" rx="10" fill="#141619" stroke="#30353a"/>
  <text x="48" y="694" class="h3" text-anchor="start">Sell Put 资金占用</text>
  <text x="48" y="722" class="body2" text-anchor="start">现金占用 21.6% · 7 天内到期 2 张 · TSLA 高注意</text>
  <text x="376" y="694" class="green" text-anchor="end">查看</text>

  <rect x="30" y="756" width="370" height="90" rx="10" fill="#141619" stroke="#30353a"/>
  <text x="48" y="786" class="h3" text-anchor="start">组合净值 / 近 60 日</text>
  <path d="M 74.0 836.0 L 88.6 834.1 L 103.3 835.5 L 117.9 831.8 L 132.5 829.4 L 147.2 830.8 L 161.8 827.6 L 176.4 826.2 L 191.1 828.0 L 205.7 822.9 L 220.3 820.1 L 234.9 821.0 L 249.6 818.2 L 264.2 815.8 L 278.8 816.8 L 293.5 813.5 L 308.1 810.7 L 322.7 811.6 L 337.4 808.3 L 352.0 806.0 L 352 836 L 74 836 Z" fill="#351018" opacity=".62"/><path d="M 74.0 836.0 L 88.6 834.1 L 103.3 835.5 L 117.9 831.8 L 132.5 829.4 L 147.2 830.8 L 161.8 827.6 L 176.4 826.2 L 191.1 828.0 L 205.7 822.9 L 220.3 820.1 L 234.9 821.0 L 249.6 818.2 L 264.2 815.8 L 278.8 816.8 L 293.5 813.5 L 308.1 810.7 L 322.7 811.6 L 337.4 808.3 L 352.0 806.0" class="lineGreen"/>
  <text x="48" y="834" class="tiny" text-anchor="start">2026-03-10</text><text x="376" y="834" class="green" text-anchor="end">2026-05-09  +8.7%</text>
  <rect x="30" y="854" width="370" height="58" rx="18" fill="#0f1112" stroke="#252b2e"/>
  <g>
        <rect x="28" y="860" width="58" height="40" rx="12" fill="#2c1118" stroke="#ff4357"/>
        <text x="57" y="885" class="green2" text-anchor="middle">总览</text>
      </g><g>
        <rect x="108" y="860" width="58" height="40" rx="12" fill="#111417" stroke="#2a3033"/>
        <text x="137" y="885" class="tiny" text-anchor="middle">持仓</text>
      </g><g>
        <rect x="188" y="860" width="58" height="40" rx="12" fill="#111417" stroke="#2a3033"/>
        <text x="217" y="885" class="tiny" text-anchor="middle">关注</text>
      </g><g>
        <rect x="268" y="860" width="58" height="40" rx="12" fill="#111417" stroke="#2a3033"/>
        <text x="297" y="885" class="tiny" text-anchor="middle">研究</text>
      </g><g>
        <rect x="348" y="860" width="58" height="40" rx="12" fill="#111417" stroke="#2a3033"/>
        <text x="377" y="885" class="tiny" text-anchor="middle">我的</text>
      </g>
</svg>