<?xml version="1.0" encoding="UTF-8"?>
<svg xmlns="http://www.w3.org/2000/svg" width="1600" height="1050" viewBox="0 0 1600 1050">
  <style>
  .bg { fill: #050606; }
  .window { fill: #0b0d0e; stroke: #303538; stroke-width: 1.2; }
  .topbar { fill: #111315; stroke: #252a2e; stroke-width: 1; }
  .panel { fill: #141619; stroke: #30353a; stroke-width: 1.1; }
  .panel2 { fill: #101214; stroke: #2a2f34; stroke-width: 1; }
  .mutedPanel { fill: #0f1213; stroke: #242a2d; stroke-width: 1; }
  .active { stroke: #33f24f; stroke-width: 1.8; }
  .greenFill { fill: #102415; }
  .title { font: 700 32px "PingFang SC", "Microsoft YaHei", Arial, sans-serif; fill: #f3f6f6; }
  .h1 { font: 700 25px "PingFang SC", "Microsoft YaHei", Arial, sans-serif; fill: #f5f7f7; }
  .h2 { font: 700 18px "PingFang SC", "Microsoft YaHei", Arial, sans-serif; fill: #f1f5f3; }
  .h3 { font: 700 15px "PingFang SC", "Microsoft YaHei", Arial, sans-serif; fill: #dce2e0; }
  .label { font: 650 12px "PingFang SC", "Microsoft YaHei", Arial, sans-serif; fill: #8e9898; }
  .tiny { font: 500 11px "PingFang SC", "Microsoft YaHei", Arial, sans-serif; fill: #788282; }
  .body { font: 500 14px "PingFang SC", "Microsoft YaHei", Arial, sans-serif; fill: #d6ddda; }
  .body2 { font: 500 13px "PingFang SC", "Microsoft YaHei", Arial, sans-serif; fill: #aeb8b5; }
  .green { fill: #48f25f; }
  .green2 { fill: #78ff83; }
  .amber { fill: #f6c45b; }
  .red { fill: #ff6666; }
  .cyan { fill: #60d2ff; }
  .violet { fill: #a88cff; }
  .lineGreen { fill: none; stroke: #67f06c; stroke-width: 3; stroke-linecap: round; stroke-linejoin: round; }
  .lineCyan { fill: none; stroke: #60d2ff; stroke-width: 2.4; stroke-linecap: round; stroke-linejoin: round; }
  .dash { fill: none; stroke: #8d865c; stroke-width: 1.4; stroke-dasharray: 6 7; opacity: .9; }
  .divider { stroke: #252b2e; stroke-width: 1; }
  .mono { font: 650 14px "SFMono-Regular", "Cascadia Mono", Menlo, monospace; fill: #f2f5f2; }
  .monoGreen { font: 800 24px "SFMono-Regular", "Cascadia Mono", Menlo, monospace; fill: #48f25f; }
  .monoSmall { font: 650 12px "SFMono-Regular", "Cascadia Mono", Menlo, monospace; fill: #9ba7a3; }
  .chipText { font: 700 12px "PingFang SC", "Microsoft YaHei", Arial, sans-serif; fill: #071007; }
  .nodeTitle { font: 800 18px "PingFang SC", "Microsoft YaHei", Arial, sans-serif; fill: #f2f6f5; }
  .nodeItem { font: 550 13px "PingFang SC", "Microsoft YaHei", Arial, sans-serif; fill: #aeb8b5; }
  .nodeMeta { font: 700 11px "PingFang SC", "Microsoft YaHei", Arial, sans-serif; fill: #48f25f; }
</style>
  <rect width="1600" height="1050" fill="#050606"/>
  <rect x="42" y="36" width="1516" height="978" rx="28" fill="#0b0d0e" stroke="#303538"/>
  <text x="82" y="92" class="title" text-anchor="start">AI 持仓系统 3.0 WebApp 站点层级</text>
  <text x="82" y="124" class="body2" text-anchor="start">移动端 5 个主 Tab；桌面端扩展为侧边导航。绑定、授权、同步、复杂确认均在 WebApp 完成。</text>
  <rect x="604" y="160" width="392" height="78" rx="10" fill="#132016" stroke="#48f25f" stroke-width="1.6"/>
  <text x="800" y="191" class="nodeTitle" text-anchor="middle">WebApp Shell</text>
  <text x="800" y="216" class="nodeItem" text-anchor="middle">Supabase Auth · Tenant Context · Top Status Bar</text>

  <path d="M 800 238 C 800 269, 225 269, 225 300" fill="none" stroke="#344045" stroke-width="1.4"/>
  <path d="M 800 238 C 800 269, 520 269, 520 300" fill="none" stroke="#344045" stroke-width="1.4"/>
  <path d="M 800 238 C 800 269, 815 269, 815 300" fill="none" stroke="#344045" stroke-width="1.4"/>
  <path d="M 800 238 C 800 269, 1110 269, 1110 300" fill="none" stroke="#344045" stroke-width="1.4"/>
  <path d="M 800 238 C 800 269, 1405 269, 1405 300" fill="none" stroke="#344045" stroke-width="1.4"/>

  <g>
    <rect x="82" y="300" width="286" height="190" rx="8" fill="#121518" stroke="#30373a" stroke-width="1.2"/>
    <rect x="82" y="300" width="6" height="190" rx="3" fill="#48f25f"/>
    <text x="104" y="330" class="nodeTitle" text-anchor="start">总览 Dashboard</text>
    <text x="104" y="350" class="nodeMeta" text-anchor="start">P0 · 首屏</text>
    <text x="104" y="366" class="nodeItem" text-anchor="start">• 资产摘要 / 今日盈亏</text><text x="104" y="390" class="nodeItem" text-anchor="start">• 数据新鲜度 / 市场状态</text><text x="104" y="414" class="nodeItem" text-anchor="start">• 风险雷达 / 今日行动</text><text x="104" y="438" class="nodeItem" text-anchor="start">• 页面内 AI 解释入口</text>
  </g>
  <g>
    <rect x="377" y="300" width="286" height="190" rx="8" fill="#121518" stroke="#30373a" stroke-width="1.2"/>
    <rect x="377" y="300" width="6" height="190" rx="3" fill="#60d2ff"/>
    <text x="399" y="330" class="nodeTitle" text-anchor="start">持仓 Portfolio</text>
    <text x="399" y="350" class="nodeMeta" text-anchor="start">P0 · 核心工作台</text>
    <text x="399" y="366" class="nodeItem" text-anchor="start">• 多 portfolio_view</text><text x="399" y="390" class="nodeItem" text-anchor="start">• 股票/ETF 持仓</text><text x="399" y="414" class="nodeItem" text-anchor="start">• 期权 sell put 持仓</text><text x="399" y="438" class="nodeItem" text-anchor="start">• 来源 / 时间线 / 明细</text>
  </g>
  <g>
    <rect x="672" y="300" width="286" height="190" rx="8" fill="#121518" stroke="#30373a" stroke-width="1.2"/>
    <rect x="672" y="300" width="6" height="190" rx="3" fill="#a88cff"/>
    <text x="694" y="330" class="nodeTitle" text-anchor="start">关注 Follow</text>
    <text x="694" y="350" class="nodeMeta" text-anchor="start">P0 · 机会池</text>
    <text x="694" y="366" class="nodeItem" text-anchor="start">• 可能买入标的</text><text x="694" y="390" class="nodeItem" text-anchor="start">• sell put 候选条件</text><text x="694" y="414" class="nodeItem" text-anchor="start">• 价格 / IV / 事件提醒</text><text x="694" y="438" class="nodeItem" text-anchor="start">• 转换为持仓或归档</text>
  </g>
  <g>
    <rect x="967" y="300" width="286" height="190" rx="8" fill="#121518" stroke="#30373a" stroke-width="1.2"/>
    <rect x="967" y="300" width="6" height="190" rx="3" fill="#f6c45b"/>
    <text x="989" y="330" class="nodeTitle" text-anchor="start">研究 Research</text>
    <text x="989" y="350" class="nodeMeta" text-anchor="start">P0 · Hermes 长任务</text>
    <text x="989" y="366" class="nodeItem" text-anchor="start">• 个股深研</text><text x="989" y="390" class="nodeItem" text-anchor="start">• 期权策略研究</text><text x="989" y="414" class="nodeItem" text-anchor="start">• 清仓复盘报告</text><text x="989" y="438" class="nodeItem" text-anchor="start">• 任务进度与历史归档</text>
  </g>
  <g>
    <rect x="1262" y="300" width="286" height="190" rx="8" fill="#121518" stroke="#30373a" stroke-width="1.2"/>
    <rect x="1262" y="300" width="6" height="190" rx="3" fill="#ff6b6b"/>
    <text x="1284" y="330" class="nodeTitle" text-anchor="start">我的 / 数据</text>
    <text x="1284" y="350" class="nodeMeta" text-anchor="start">P0 · 控制台</text>
    <text x="1284" y="366" class="nodeItem" text-anchor="start">• 微信 claw 绑定</text><text x="1284" y="390" class="nodeItem" text-anchor="start">• 富途授权与同步</text><text x="1284" y="414" class="nodeItem" text-anchor="start">• 数据来源与质量</text><text x="1284" y="438" class="nodeItem" text-anchor="start">• 规则纪律 / 通知策略</text>
  </g>

  <path d="M 520 490 C 520 528, 520 528, 520 565" fill="none" stroke="#344045" stroke-width="1.4"/>
  <path d="M 1405 490 C 1405 528, 1210 528, 1210 565" fill="none" stroke="#344045" stroke-width="1.4"/>
  <path d="M 815 490 C 815 528, 815 528, 815 565" fill="none" stroke="#344045" stroke-width="1.4"/>
  <path d="M 1110 490 C 1110 528, 1110 528, 1110 565" fill="none" stroke="#344045" stroke-width="1.4"/>
  <path d="M 225 490 C 225 528, 390 528, 390 565" fill="none" stroke="#344045" stroke-width="1.4"/>

  <g>
    <rect x="82" y="565" width="286" height="190" rx="8" fill="#121518" stroke="#30373a" stroke-width="1.2"/>
    <rect x="82" y="565" width="6" height="190" rx="3" fill="#48f25f"/>
    <text x="104" y="595" class="nodeTitle" text-anchor="start">确认 / 消息中心</text>
    <text x="104" y="615" class="nodeMeta" text-anchor="start">P0 · 全局 Badge</text>
    <text x="104" y="631" class="nodeItem" text-anchor="start">• 交易草稿确认</text><text x="104" y="655" class="nodeItem" text-anchor="start">• OCR 多字段修正</text><text x="104" y="679" class="nodeItem" text-anchor="start">• 批量导入预览</text><text x="104" y="703" class="nodeItem" text-anchor="start">• 数据冲突 / 风险 override</text>
  </g>
  <g>
    <rect x="377" y="565" width="286" height="190" rx="8" fill="#121518" stroke="#30373a" stroke-width="1.2"/>
    <rect x="377" y="565" width="6" height="190" rx="3" fill="#60d2ff"/>
    <text x="399" y="595" class="nodeTitle" text-anchor="start">交易与导入</text>
    <text x="399" y="615" class="nodeMeta" text-anchor="start">P0/P1</text>
    <text x="399" y="631" class="nodeItem" text-anchor="start">• 手工交易录入</text><text x="399" y="655" class="nodeItem" text-anchor="start">• 自然语言结构化预览</text><text x="399" y="679" class="nodeItem" text-anchor="start">• 图片 OCR</text><text x="399" y="703" class="nodeItem" text-anchor="start">• CSV / 对账单导入</text>
  </g>
  <g>
    <rect x="672" y="565" width="286" height="190" rx="8" fill="#121518" stroke="#30373a" stroke-width="1.2"/>
    <rect x="672" y="565" width="6" height="190" rx="3" fill="#a88cff"/>
    <text x="694" y="595" class="nodeTitle" text-anchor="start">清仓 List Views</text>
    <text x="694" y="615" class="nodeMeta" text-anchor="start">P0/P1 · 复盘</text>
    <text x="694" y="631" class="nodeItem" text-anchor="start">• 历史持仓查询</text><text x="694" y="655" class="nodeItem" text-anchor="start">• 已实现盈亏</text><text x="694" y="679" class="nodeItem" text-anchor="start">• 退出原因 / 复盘标签</text><text x="694" y="703" class="nodeItem" text-anchor="start">• 二次买入条件</text>
  </g>
  <g>
    <rect x="967" y="565" width="286" height="190" rx="8" fill="#121518" stroke="#30373a" stroke-width="1.2"/>
    <rect x="967" y="565" width="6" height="190" rx="3" fill="#f6c45b"/>
    <text x="989" y="595" class="nodeTitle" text-anchor="start">报告 Artifact</text>
    <text x="989" y="615" class="nodeMeta" text-anchor="start">P0 · 深链</text>
    <text x="989" y="631" class="nodeItem" text-anchor="start">• 深研报告</text><text x="989" y="655" class="nodeItem" text-anchor="start">• 策略说明</text><text x="989" y="679" class="nodeItem" text-anchor="start">• 图表和数据 lineage</text><text x="989" y="703" class="nodeItem" text-anchor="start">• 微信摘要跳转</text>
  </g>
  <g>
    <rect x="1262" y="565" width="286" height="190" rx="8" fill="#121518" stroke="#30373a" stroke-width="1.2"/>
    <rect x="1262" y="565" width="6" height="190" rx="3" fill="#ff6b6b"/>
    <text x="1284" y="595" class="nodeTitle" text-anchor="start">设置 Settings</text>
    <text x="1284" y="615" class="nodeMeta" text-anchor="start">P0/P1</text>
    <text x="1284" y="631" class="nodeItem" text-anchor="start">• 账号资料 / 安全</text><text x="1284" y="655" class="nodeItem" text-anchor="start">• Quiet hours</text><text x="1284" y="679" class="nodeItem" text-anchor="start">• 默认 portfolio_view</text><text x="1284" y="703" class="nodeItem" text-anchor="start">• 导出 / 删除 / 隐私</text>
  </g>

  <rect x="82" y="835" width="1466" height="112" rx="8" fill="#101315" stroke="#2a3235"/>
  <text x="110" y="872" class="h2" text-anchor="start">P0 导航约束</text>
  <text x="110" y="908" class="body" text-anchor="start">移动端底部 Tab：总览、持仓、关注、研究、我的。确认中心用全局 badge 和深链进入，不占底部导航位。</text>
  <text x="110" y="938" class="body2" text-anchor="start">桌面端可展开为：总览、持仓、关注、清仓、研究、确认/消息、数据/账户、规则/纪律、设置。</text>
</svg>