<?xml version="1.0" encoding="UTF-8"?>
<svg xmlns="http://www.w3.org/2000/svg" width="1600" height="1000" viewBox="0 0 1600 1000">
  <style>
  .bg { fill: #050606; }
  .window { fill: #0b0d0e; stroke: #303538; stroke-width: 1.2; }
  .topbar { fill: #111315; stroke: #252a2e; stroke-width: 1; }
  .panel { fill: #141619; stroke: #30353a; stroke-width: 1.1; }
  .panel2 { fill: #101214; stroke: #2a2f34; stroke-width: 1; }
  .soft { fill: #111315; stroke: #242a2d; stroke-width: 1; }
  .active { stroke: #ff4357; stroke-width: 1.8; }
  .title { font: 800 31px "PingFang SC", "Microsoft YaHei", Arial, sans-serif; fill: #f3f6f6; }
  .h1 { font: 800 24px "PingFang SC", "Microsoft YaHei", Arial, sans-serif; fill: #f5f7f7; }
  .h2 { font: 750 18px "PingFang SC", "Microsoft YaHei", Arial, sans-serif; fill: #f1f5f3; }
  .h3 { font: 720 15px "PingFang SC", "Microsoft YaHei", Arial, sans-serif; fill: #dce2e0; }
  .label { font: 650 12px "PingFang SC", "Microsoft YaHei", Arial, sans-serif; fill: #8e9898; }
  .tiny { font: 520 11px "PingFang SC", "Microsoft YaHei", Arial, sans-serif; fill: #788282; }
  .body { font: 540 14px "PingFang SC", "Microsoft YaHei", Arial, sans-serif; fill: #d6ddda; }
  .body2 { font: 520 13px "PingFang SC", "Microsoft YaHei", Arial, sans-serif; fill: #aeb8b5; }
  .red { fill: #ff4357; }
  .red2 { fill: #ff7a88; }
  .amber { fill: #f6c45b; }
  .green { fill: #50d27a; }
  .cyan { fill: #60d2ff; }
  .violet { fill: #a88cff; }
  .mono { font: 680 14px "SFMono-Regular", "Cascadia Mono", Menlo, monospace; fill: #f2f5f2; }
  .monoRed { font: 850 24px "SFMono-Regular", "Cascadia Mono", Menlo, monospace; fill: #ff4357; }
  .monoSmall { font: 650 12px "SFMono-Regular", "Cascadia Mono", Menlo, monospace; fill: #9ba7a3; }
  .chipText { font: 750 12px "PingFang SC", "Microsoft YaHei", Arial, sans-serif; fill: #fff2f3; }
  .darkChipText { font: 750 12px "PingFang SC", "Microsoft YaHei", Arial, sans-serif; fill: #18070a; }
  .lineRed { fill: none; stroke: #ff5263; stroke-width: 3; stroke-linecap: round; stroke-linejoin: round; }
  .lineAmber { fill: none; stroke: #f6c45b; stroke-width: 2.2; stroke-linecap: round; stroke-linejoin: round; stroke-dasharray: 5 6; }
  .divider { stroke: #252b2e; stroke-width: 1; }
</style>
  
    <rect width="1600" height="1000" class="bg"/>
    <rect x="40" y="34" width="1520" height="920" rx="28" class="window"/>
    <rect x="40" y="34" width="1520" height="66" rx="28" class="topbar"/>
    <circle cx="76" cy="66" r="9" fill="#ff5f57"/><circle cx="104" cy="66" r="9" fill="#ffbd2e"/><circle cx="132" cy="66" r="9" fill="#28c840"/>
    <rect x="540" y="50" width="520" height="34" rx="17" fill="#1a1d20" stroke="#33383c"/>
    <text x="800" y="72" class="body2" text-anchor="middle">holdings.ai / webapp</text>
    <text x="78" y="128" class="label" text-anchor="start">AI HOLDINGS · FUTU PRIMARY · TENCENT CHECK</text>
    <text x="78" y="164" class="title" text-anchor="start">Sell Put 工作台</text>
    <text x="78" y="193" class="body2" text-anchor="start">期权产品单独成页，核心关注现金占用、DTE、IV、assignment risk 和纪律约束。</text>
    <rect x="520" y="124" width="78" height="30" rx="15" fill="#111417" stroke="#2a3033"/>
      <text x="559" y="144" class="body2" text-anchor="middle">总览</text><rect x="614" y="124" width="78" height="30" rx="15" fill="#2c1118" stroke="#ff4357"/>
      <text x="653" y="144" class="red2" text-anchor="middle">持仓</text><rect x="708" y="124" width="78" height="30" rx="15" fill="#111417" stroke="#2a3033"/>
      <text x="747" y="144" class="body2" text-anchor="middle">关注</text><rect x="802" y="124" width="78" height="30" rx="15" fill="#111417" stroke="#2a3033"/>
      <text x="841" y="144" class="body2" text-anchor="middle">研究</text><rect x="896" y="124" width="78" height="30" rx="15" fill="#111417" stroke="#2a3033"/>
      <text x="935" y="144" class="body2" text-anchor="middle">确认</text><rect x="990" y="124" width="78" height="30" rx="15" fill="#111417" stroke="#2a3033"/>
      <text x="1029" y="144" class="body2" text-anchor="middle">我的</text>
    <rect x="1360" y="124" width="150" height="58" rx="5" fill="#111416" stroke="#30353a"/>
    <circle cx="1380" cy="144" r="4" fill="#ff4357"/>
    <text x="1394" y="147" class="label" text-anchor="start">ALL_ASSETS</text>
    <text x="1380" y="173" class="red2" text-anchor="start">fresh 42s</text>
  

  <rect x="78" y="226" width="250" height="78" rx="5" class="panel2"/>
    <text x="92" y="249" class="label" text-anchor="start">现金可用</text>
    <text x="92" y="278" class="monoRed" text-anchor="start">¥398,200</text>
    <text x="92" y="294" class="tiny" text-anchor="start">Futu primary</text>
  <rect x="346" y="226" width="250" height="78" rx="5" class="panel2"/>
    <text x="360" y="249" class="label" text-anchor="start">Sell Put 占用</text>
    <text x="360" y="278" class="monoRed" text-anchor="start">21.6%</text>
    <text x="360" y="294" class="tiny" text-anchor="start">上限 30%</text>
  <rect x="614" y="226" width="250" height="78" rx="5" class="panel2"/>
    <text x="628" y="249" class="label" text-anchor="start">7 天内到期</text>
    <text x="628" y="278" class="monoRed" text-anchor="start">2 张</text>
    <text x="628" y="294" class="tiny" text-anchor="start">TSLA / AAPL</text>
  <rect x="882" y="226" width="250" height="78" rx="5" class="panel2"/>
    <text x="896" y="249" class="label" text-anchor="start">高注意</text>
    <text x="896" y="278" class="monoRed" text-anchor="start">1</text>
    <text x="896" y="294" class="tiny" text-anchor="start">TSLA 250P</text>
  <rect x="1150" y="226" width="250" height="78" rx="5" class="panel2"/>
    <text x="1164" y="249" class="label" text-anchor="start">候选池</text>
    <text x="1164" y="278" class="monoRed" text-anchor="start">18</text>
    <text x="1164" y="294" class="tiny" text-anchor="start">愿接股标的</text>

  <rect x="78" y="334" width="600" height="272" rx="6" class="panel"/><text x="94" y="362" class="h3" text-anchor="start">当前 Sell Put 持仓</text>
  <g>
    <rect x="104" y="382" width="240" height="104" rx="5" fill="#101315" stroke="#ff4357" stroke-width="1.8"/>
    <text x="118" y="406" class="mono" text-anchor="start">AAPL 185P 2026-05-15</text>
    <text x="118" y="430" class="tiny" text-anchor="start">DTE 6 · delta -0.22 · cash 18.5k</text>
    <text x="118" y="464" class="monoRed" text-anchor="start">0.92 / 0.95</text>
    <text x="322" y="464" class="body2" text-anchor="end">低风险</text>
  </g>
  <g>
    <rect x="374" y="382" width="240" height="104" rx="5" fill="#101315" stroke="#2a2f34" stroke-width="1"/>
    <text x="388" y="406" class="mono" text-anchor="start">NVDA 880P 2026-05-22</text>
    <text x="388" y="430" class="tiny" text-anchor="start">DTE 13 · delta -0.31 · cash 88k</text>
    <text x="388" y="464" class="monoRed" text-anchor="start">8.10 / 8.35</text>
    <text x="592" y="464" class="body2" text-anchor="end">中风险</text>
  </g>
  <g>
    <rect x="104" y="496" width="240" height="104" rx="5" fill="#101315" stroke="#2a2f34" stroke-width="1"/>
    <text x="118" y="520" class="mono" text-anchor="start">TSLA 250P 2026-05-15</text>
    <text x="118" y="544" class="tiny" text-anchor="start">DTE 6 · delta -0.39 · cash 25k</text>
    <text x="118" y="578" class="monoRed" text-anchor="start">4.20 / 4.40</text>
    <text x="322" y="578" class="amber" text-anchor="end">高注意</text>
  </g>
  <g>
    <rect x="374" y="496" width="240" height="104" rx="5" fill="#101315" stroke="#2a2f34" stroke-width="1"/>
    <text x="388" y="520" class="mono" text-anchor="start">SPY 570P 2026-05-29</text>
    <text x="388" y="544" class="tiny" text-anchor="start">DTE 20 · delta -0.18 · cash 57k</text>
    <text x="388" y="578" class="monoRed" text-anchor="start">1.28 / 1.31</text>
    <text x="592" y="578" class="body2" text-anchor="end">低风险</text>
  </g>

  <rect x="706" y="334" width="360" height="272" rx="6" class="panel"/><text x="722" y="362" class="h3" text-anchor="start">资金占用结构</text>
  <text x="732" y="382" class="label" text-anchor="start">现金担保</text><text x="1010" y="382" class="red2" text-anchor="end">¥188,500</text>
  <text x="732" y="430" class="label" text-anchor="start">保证金占用</text><text x="1010" y="430" class="red2" text-anchor="end">¥82,100</text>
  <text x="732" y="478" class="label" text-anchor="start">剩余现金</text><text x="1010" y="478" class="body2" text-anchor="end">¥127,600</text>
  <text x="732" y="526" class="label" text-anchor="start">纪律上限</text><text x="1010" y="526" class="amber" text-anchor="end">30%</text>
  <rect x="732" y="556" width="278" height="18" rx="9" fill="#241014" stroke="#563039"/>
  <rect x="732" y="556" width="202" height="18" rx="9" fill="#ff1f3d"/>

  <rect x="1094" y="334" width="396" height="272" rx="6" class="panel"/><text x="1110" y="362" class="h3" text-anchor="start">到期梯队</text>
  <text x="1120" y="384" class="label" text-anchor="start">DTE 0-7</text><text x="1410" y="384" class="amber" text-anchor="end">2 张 · 高注意</text>
  <text x="1120" y="432" class="label" text-anchor="start">DTE 8-21</text><text x="1410" y="432" class="red2" text-anchor="end">4 张</text>
  <text x="1120" y="480" class="label" text-anchor="start">DTE 22-45</text><text x="1410" y="480" class="body2" text-anchor="end">6 张</text>
  <text x="1120" y="528" class="label" text-anchor="start">DTE 45+</text><text x="1410" y="528" class="tiny" text-anchor="end">0 张</text>
  <text x="1120" y="568" class="body2" text-anchor="start">下一个动作：TSLA 250P 到期前确认 roll / 平仓 / 接股。</text>

  <rect x="78" y="636" width="708" height="240" rx="6" class="panel"/><text x="94" y="664" class="h3" text-anchor="start">候选 Strike 对比</text>
  <g><rect x="104" y="684" width="660" height="42" rx="4" fill="#101315" stroke="#252b2e"/><text x="118" y="711" class="label" text-anchor="start">标的</text><text x="238" y="711" class="label" text-anchor="start">Strike</text><text x="343" y="711" class="label" text-anchor="start">DTE</text><text x="448" y="711" class="label" text-anchor="start">IV</text><text x="553" y="711" class="label" text-anchor="start">Premium</text><text x="658" y="711" class="label" text-anchor="start">纪律</text></g>
  <g><rect x="104" y="734" width="660" height="42" rx="4" fill="#101315" stroke="#252b2e"/><text x="118" y="761" class="mono" text-anchor="start">AAPL</text><text x="238" y="761" class="body2" text-anchor="start">180</text><text x="343" y="761" class="body2" text-anchor="start">13</text><text x="448" y="761" class="red2" text-anchor="start">25.2%</text><text x="553" y="761" class="red2" text-anchor="start">0.62</text><text x="658" y="761" class="green" text-anchor="start">通过</text></g>
  <g><rect x="104" y="784" width="660" height="42" rx="4" fill="#101315" stroke="#252b2e"/><text x="118" y="811" class="mono" text-anchor="start">NVDA</text><text x="238" y="811" class="body2" text-anchor="start">850</text><text x="343" y="811" class="body2" text-anchor="start">20</text><text x="448" y="811" class="red2" text-anchor="start">44.8%</text><text x="553" y="811" class="red2" text-anchor="start">6.20</text><text x="658" y="811" class="amber" text-anchor="start">集中</text></g>
  <g><rect x="104" y="834" width="660" height="42" rx="4" fill="#101315" stroke="#252b2e"/><text x="118" y="861" class="mono" text-anchor="start">TSLA</text><text x="238" y="861" class="body2" text-anchor="start">230</text><text x="343" y="861" class="body2" text-anchor="start">13</text><text x="448" y="861" class="amber" text-anchor="start">58.4%</text><text x="553" y="861" class="red2" text-anchor="start">3.10</text><text x="658" y="861" class="amber" text-anchor="start">高波动</text></g>

  <rect x="818" y="636" width="672" height="240" rx="6" class="panel"/><text x="834" y="664" class="h3" text-anchor="start">交易纪律与确认</text>
  <text x="846" y="690" class="body2" text-anchor="start">• 只卖愿意接股的标的：AAPL / SPY 通过，TSLA 需要原因。</text>
  <text x="846" y="726" class="body2" text-anchor="start">• 财报前不卖 put：NVDA 进入风险提示，不直接生成执行清单。</text>
  <text x="846" y="762" class="body2" text-anchor="start">• 现金占用上限 30%：当前 21.6%，新增候选需模拟占用。</text>
  <rect x="846" y="810" width="280" height="42" rx="5" fill="#2c1118" stroke="#ff4357"/>
  <text x="986" y="837" class="red2" text-anchor="middle">生成交易草稿</text>
  <rect x="1148" y="810" width="280" height="42" rx="5" fill="#111417" stroke="#f6c45b"/>
  <text x="1288" y="837" class="amber" text-anchor="middle">进入确认中心</text>
</svg>